HIERARCHY
ROOT Hips
{
	OFFSET 0.000000 0.000000 0.000000
	CHANNELS 6 Xposition Yposition Zposition Xrotation Yrotation Zrotation
	JOINT LeftUpLeg_virtual
	{
		OFFSET 0.000000 0.000000 0.000000
		CHANNELS 3 Xrotation Yrotation Zrotation
		JOINT LeftUpLeg
		{
			OFFSET 13.026900 -6.336304 -1.092800
			CHANNELS 3 Xrotation Yrotation Zrotation
			JOINT LeftLeg
			{
				OFFSET 0.524474 -46.096886 9.782700
				CHANNELS 3 Xrotation Yrotation Zrotation
				JOINT LeftFoot
				{
					OFFSET -0.524474 -53.427422 -12.948200
					CHANNELS 3 Xrotation Yrotation Zrotation
					JOINT LeftToeBase
					{
						OFFSET 0.192200 -14.009700 16.364100
						CHANNELS 3 Xrotation Yrotation Zrotation
						JOINT LeftToe_End
						{
							OFFSET -1.784700 -0.561700 9.474800
							CHANNELS 3 Xrotation Yrotation Zrotation
							End Site
							{
								OFFSET 0 0 0
							}
						}
					}
				}
			}
		}
	}
	JOINT RightUpLeg_virtual
	{
		OFFSET 0.000000 0.000000 0.000000
		CHANNELS 3 Xrotation Yrotation Zrotation
		JOINT RightUpLeg
		{
			OFFSET -12.883000 -6.336304 -1.092800
			CHANNELS 3 Xrotation Yrotation Zrotation
			JOINT RightLeg
			{
				OFFSET -0.524587 -46.096825 9.782800
				CHANNELS 3 Xrotation Yrotation Zrotation
				JOINT RightFoot
				{
					OFFSET 0.524587 -53.427383 -12.948300
					CHANNELS 3 Xrotation Yrotation Zrotation
					JOINT RightToeBase
					{
						OFFSET -0.192200 -14.009700 16.364100
						CHANNELS 3 Xrotation Yrotation Zrotation
						JOINT RightToe_End
						{
							OFFSET 1.784700 -0.561700 9.474800
							CHANNELS 3 Xrotation Yrotation Zrotation
							End Site
							{
								OFFSET 0 0 0
							}
						}
					}
				}
			}
		}
	}
	JOINT Spine_virtual
	{
		OFFSET 0.000000 0.000000 0.000000
		CHANNELS 3 Xrotation Yrotation Zrotation
		JOINT Spine
		{
			OFFSET 0.072000 7.257294 -0.789700
			CHANNELS 3 Xrotation Yrotation Zrotation
			JOINT Spine1
			{
				OFFSET 0.000000 12.508769 -0.658067
				CHANNELS 3 Xrotation Yrotation Zrotation
				JOINT Spine1_split
				{
					OFFSET 0.000000 12.508769 -0.658067
					CHANNELS 3 Xrotation Yrotation Zrotation
					JOINT Spine2
					{
						OFFSET 0.000000 12.508769 -0.658067
						CHANNELS 3 Xrotation Yrotation Zrotation
						JOINT Neck_virtual
						{
							OFFSET 0.000000 0.000000 0.000000
							CHANNELS 3 Xrotation Yrotation Zrotation
							JOINT Neck
							{
								OFFSET 0.000000 14.033295 7.520400
								CHANNELS 3 Xrotation Yrotation Zrotation
								JOINT Head
								{
									OFFSET 0.000000 8.198502 5.703100
									CHANNELS 3 Xrotation Yrotation Zrotation
									JOINT HeadTop_End
									{
										OFFSET 0.000000 17.760803 13.332701
										CHANNELS 3 Xrotation Yrotation Zrotation
										End Site
										{
											OFFSET 0 0 0
										}
									}
								}
							}
						}
						JOINT LeftShoulder_virtual
						{
							OFFSET 0.000000 0.000000 0.000000
							CHANNELS 3 Xrotation Yrotation Zrotation
							JOINT LeftShoulder
							{
								OFFSET 6.292450 5.785301 -0.669000
								CHANNELS 3 Xrotation Yrotation Zrotation
								JOINT LeftShoulder_split
								{
									OFFSET 6.292450 5.785301 -0.669000
									CHANNELS 3 Xrotation Yrotation Zrotation
									JOINT LeftArm
									{
										OFFSET 13.907140 -6.093903 1.965100
										CHANNELS 3 Xrotation Yrotation Zrotation
										JOINT LeftForeArm
										{
											OFFSET 34.140198 0.000000 0.000000
											CHANNELS 3 Xrotation Yrotation Zrotation
											JOINT LeftHand
											{
												OFFSET 40.960209 0.000000 0.000000
												CHANNELS 3 Xrotation Yrotation Zrotation
												End Site
												{
													OFFSET 0 0 0
												}
											}
										}
									}
								}
							}
						}
						JOINT RightShoulder_virtual
						{
							OFFSET 0.000000 0.000000 0.000000
							CHANNELS 3 Xrotation Yrotation Zrotation
							JOINT RightShoulder
							{
								OFFSET -6.292450 5.785301 -0.669000
								CHANNELS 3 Xrotation Yrotation Zrotation
								JOINT RightShoulder_split
								{
									OFFSET -6.292450 5.785301 -0.669000
									CHANNELS 3 Xrotation Yrotation Zrotation
									JOINT RightArm
									{
										OFFSET -13.907140 -6.093903 1.965100
										CHANNELS 3 Xrotation Yrotation Zrotation
										JOINT RightForeArm
										{
											OFFSET -34.140198 0.000000 0.000000
											CHANNELS 3 Xrotation Yrotation Zrotation
											JOINT RightHand
											{
												OFFSET -40.960209 0.000000 0.000000
												CHANNELS 3 Xrotation Yrotation Zrotation
												End Site
												{
													OFFSET 0 0 0
												}
											}
										}
									}
								}
							}
						}
					}
				}
			}
		}
	}
}
MOTION
Frames: 4
Frame Time: 0.03333333
4.908386 109.906288 0.271305 0.000000 0.000000 0.000000 116.719081 -87.198935 115.625240 -31.061395 34.620644 35.184777 24.457417 -8.351657 0.923122 -1.749617 5.634328 -16.396856 -1.836411 -0.000604 -0.000038 0.000000 0.000000 0.000000 116.719081 -87.198935 115.625240 -29.595630 -13.709584 -19.474522 14.776086 9.997446 -3.680587 5.733040 13.923044 18.437732 -0.001639 -0.000389 -0.000000 0.000000 0.000000 0.000000 116.719081 -87.198935 115.625240 5.411871 -2.274766 -7.371634 2.771441 -0.553949 -1.077813 0.000000 0.000000 0.000000 0.000000 0.000000 0.000000 2.777688 -0.510271 -1.087487 -12.273409 6.004530 4.761556 20.231321 76.958064 -25.708567 0.000000 0.000000 0.000000 2.777688 -0.510271 -1.087487 5.516888 -2.188421 12.208355 0.000000 0.000000 0.000000 -41.899355 5.599307 2.227372 0.045084 -12.980535 -0.290004 0.000000 0.000000 0.000000 2.777688 -0.510271 -1.087487 -2.478561 1.878760 -16.638409 0.000000 0.000000 0.000000 -51.925885 54.163769 47.616616 -178.637451 49.479653 -179.753162 0.000000 0.000000 0.000000 
4.910024 109.918732 0.272202 0.000000 0.000000 0.000000 116.713125 -87.211468 115.627507 -31.024102 34.632099 35.150148 24.425250 -8.347570 0.937503 -1.735454 5.634489 -16.402293 -1.637690 -0.000724 -0.000045 0.000000 0.000000 0.000000 116.713125 -87.211468 115.627507 -29.565065 -13.708532 -19.486870 14.741440 9.991988 -3.665357 5.747341 13.922369 18.434387 0.014668 -0.000402 -0.000025 0.000000 0.000000 0.000000 116.713125 -87.211468 115.627507 5.411815 -2.274818 -7.371220 2.771262 -0.563896 -1.076318 0.000000 0.000000 0.000000 0.000000 0.000000 0.000000 2.777362 -0.526632 -1.085019 -12.248463 5.976468 4.762428 20.362394 77.005861 -25.853048 0.000000 0.000000 0.000000 2.777362 -0.526632 -1.085019 5.523682 -2.173154 12.243788 0.000000 0.000000 0.000000 -41.919282 5.652339 2.202118 0.064102 -13.136979 -0.284914 0.000000 0.000000 0.000000 2.777362 -0.526632 -1.085019 -2.480388 1.866600 -16.643231 0.000000 0.000000 0.000000 -51.815803 54.140273 47.365227 179.227401 49.509839 -178.185429 0.000000 0.000000 0.000000 
4.912129 109.932457 0.276608 0.000000 0.000000 0.000000 116.501881 -87.230695 115.425976 -30.990129 34.646227 35.111598 24.392976 -8.355913 0.952032 -1.720974 5.633622 -16.400911 -1.622604 -0.000688 -0.000049 0.000000 0.000000 0.000000 116.501881 -87.230695 115.425976 -29.523848 -13.702012 -19.504288 14.700790 9.970916 -3.651901 5.760558 13.921044 18.438161 0.014534 -0.000423 0.000007 0.000000 0.000000 0.000000 116.501881 -87.230695 115.425976 5.438388 -2.272404 -7.350647 2.804001 -0.568248 -1.061618 0.000000 0.000000 0.000000 0.000000 0.000000 0.000000 2.813114 -0.548237 -1.065946 -12.220989 5.899826 4.769474 20.723856 77.072674 -26.316808 0.000000 0.000000 0.000000 2.813114 -0.548237 -1.065946 5.552302 -2.127881 12.340272 0.000000 0.000000 0.000000 -42.041136 5.758739 2.080984 0.076801 -13.147948 -0.281647 0.000000 0.000000 0.000000 2.813114 -0.548237 -1.065946 -2.484599 1.832592 -16.660976 0.000000 0.000000 0.000000 -52.022966 54.080065 47.449010 179.274420 49.456990 -178.221560 0.000000 0.000000 0.000000 
4.914472 109.944656 0.284973 0.000000 0.000000 0.000000 116.044272 -87.257545 114.979568 -30.959277 34.654604 35.067205 24.368322 -8.371788 0.967122 -1.709702 5.632206 -16.394023 -1.598481 -0.000690 -0.000037 0.000000 0.000000 0.000000 116.044272 -87.257545 114.979568 -29.474746 -13.683572 -19.528952 14.663059 9.927488 -3.640618 5.768248 13.918850 18.450981 0.018145 -0.000374 -0.000020 0.000000 0.000000 0.000000 116.044272 -87.257545 114.979568 5.450832 -2.286982 -7.330774 2.800295 -0.616382 -1.060636 0.000000 0.000000 0.000000 0.000000 0.000000 0.000000 2.814546 -0.624594 -1.055655 -12.191938 5.786893 4.782603 21.205687 77.275681 -26.812884 0.000000 0.000000 0.000000 2.814546 -0.624594 -1.055655 5.595410 -2.057290 12.486843 0.000000 0.000000 0.000000 -42.079358 5.946082 1.971276 0.088189 -13.162972 -0.278388 0.000000 0.000000 0.000000 2.814546 -0.624594 -1.055655 -2.491065 1.778939 -16.689697 0.000000 0.000000 0.000000 -52.210512 54.072067 47.554837 179.342463 49.475957 -178.272363 0.000000 0.000000 0.000000 
